<svg width="23" height="18" viewBox="0 0 23 18" fill="none" xmlns="http://www.w3.org/2000/svg">
<path d="M13.2978 0H4.6262C4.23256 0 3.91343 0.30606 3.91343 0.683576C3.91343 1.06109 4.23256 1.36715 4.6262 1.36715H8.33123C7.55096 1.83594 6.84627 2.41152 6.2395 3.07568H1.3949C1.00126 3.07572 0.682129 3.38182 0.682129 3.75934C0.682129 4.13686 1.00126 4.44292 1.3949 4.44292H5.20838C4.38604 5.7804 3.91339 7.33818 3.91339 9.00002C3.91339 10.9337 4.55272 12.7269 5.63906 14.1955H3.61669C3.22305 14.1955 2.90392 14.5016 2.90392 14.8791C2.90392 15.2566 3.22305 15.5627 3.61669 15.5627H6.88313C7.32861 15.9635 7.81358 16.3219 8.33123 16.6328H1.46842C1.07478 16.6328 0.755649 16.9389 0.755649 17.3164C0.755649 17.6939 1.07478 18 1.46842 18H13.2978C18.4724 18 22.6821 13.9626 22.6821 8.99998C22.6821 4.03738 18.4723 0 13.2978 0ZM13.2978 16.6329C8.90929 16.6329 5.33901 13.2089 5.33901 9.00006C5.33901 4.79125 8.90929 1.36719 13.2978 1.36719C17.6863 1.36719 21.2566 4.79125 21.2566 9.00002C21.2566 13.2088 17.6863 16.6329 13.2978 16.6329Z" fill="#727272"/>
<path d="M13.2978 3.41653C10.0875 3.41653 7.47582 5.9213 7.47582 9.00007C7.47582 10.8361 8.40476 12.4678 9.83545 13.4861C9.84856 13.4967 9.86158 13.5074 9.87571 13.5172C9.89161 13.5283 9.9079 13.5386 9.92435 13.5483C10.8767 14.1998 12.0414 14.5836 13.2978 14.5836C14.5542 14.5836 15.7188 14.1998 16.6712 13.5483C16.6877 13.5386 16.704 13.5283 16.7199 13.5172C16.734 13.5074 16.747 13.4966 16.7601 13.4861C18.1908 12.4678 19.1198 10.8361 19.1198 9.00007C19.1198 5.92134 16.508 3.41653 13.2978 3.41653ZM14.0106 4.83944C15.4015 5.05789 16.575 5.90432 17.2027 7.06448L15.3569 7.63968C15.0364 7.19466 14.5632 6.85844 14.0106 6.70056V4.83944H14.0106ZM14.3739 9.00003C14.3739 9.56913 13.8912 10.0321 13.2978 10.0321C12.7044 10.0321 12.2216 9.56917 12.2216 9.00003C12.2216 8.43093 12.7044 7.96795 13.2978 7.96795C13.8912 7.96795 14.3739 8.43093 14.3739 9.00003ZM12.585 4.83944V6.70056C12.0323 6.85844 11.5592 7.19466 11.2386 7.63968L9.39287 7.06448C10.0206 5.90432 11.1941 5.05785 12.585 4.83944ZM10.1725 11.9624C9.38716 11.2004 8.90139 10.1536 8.90139 9.00003C8.90139 8.78401 8.9185 8.57174 8.95132 8.36438L10.7977 8.93974C10.7971 8.95985 10.796 8.9798 10.796 9.00003C10.796 9.54795 10.9889 10.0533 11.3125 10.4576L10.1725 11.9624ZM13.2978 13.2164C12.5888 13.2164 11.9185 13.0544 11.3249 12.7672L12.4651 11.2622C12.7257 11.3507 13.0059 11.3994 13.2978 11.3994C13.5897 11.3994 13.8698 11.3507 14.1305 11.2622L15.2707 12.7672C14.677 13.0543 14.0068 13.2164 13.2978 13.2164ZM16.423 11.9624L15.283 10.4577C15.6066 10.0533 15.7995 9.54799 15.7995 9.00007C15.7995 8.97984 15.7985 8.95989 15.7979 8.93978L17.6442 8.36442C17.6775 8.5748 17.6942 8.78729 17.6942 9.00007C17.6942 10.1536 17.2085 11.2003 16.423 11.9624Z" fill="#727272"/>
</svg>
